<svg width="25" height="25" viewBox="0 0 25 25" fill="none" xmlns="http://www.w3.org/2000/svg">
<path d="M17.5524 0H7.44764C3.34099 0 0 3.34099 0 7.44764V17.5524C0 21.659 3.34099 25 7.44764 25H17.5524C21.659 25 25 21.659 25 17.5524V7.44764C25 3.34099 21.659 0 17.5524 0ZM22.485 17.5524C22.485 20.2766 20.2766 22.485 17.5524 22.485H7.44764C4.72344 22.485 2.515 20.2766 2.515 17.5524V7.44764C2.515 4.72339 4.72344 2.515 7.44764 2.515H17.5524C20.2766 2.515 22.485 4.72339 22.485 7.44764V17.5524Z" fill="black"/>
<path d="M12.5001 6.03482C8.93483 6.03482 6.03424 8.93542 6.03424 12.5007C6.03424 16.0659 8.93483 18.9666 12.5001 18.9666C16.0654 18.9666 18.966 16.066 18.966 12.5007C18.966 8.93537 16.0654 6.03482 12.5001 6.03482ZM12.5001 16.4516C10.3181 16.4516 8.54924 14.6828 8.54924 12.5007C8.54924 10.3187 10.3181 8.54982 12.5001 8.54982C14.6822 8.54982 16.451 10.3187 16.451 12.5007C16.451 14.6827 14.6821 16.4516 12.5001 16.4516Z" fill="black"/>
<path d="M18.9782 7.63198C19.8339 7.63198 20.5275 6.93833 20.5275 6.08267C20.5275 5.22701 19.8339 4.53336 18.9782 4.53336C18.1225 4.53336 17.4289 5.22701 17.4289 6.08267C17.4289 6.93833 18.1225 7.63198 18.9782 7.63198Z" fill="black"/>
</svg>
